HIERARCHY
ROOT Hips
{
	OFFSET 0.000000 89.005402 0.000000
	CHANNELS 6 Xposition Yposition Zposition Xrotation Yrotation Zrotation
	JOINT Spine
	{
		OFFSET 0.116900 10.681000 0.373400
		CHANNELS 3 Xrotation Yrotation Zrotation
		JOINT Spine1
		{
			OFFSET 0.000000 13.840401 0.053500
			CHANNELS 3 Xrotation Yrotation Zrotation
			JOINT Spine2
			{
				OFFSET 0.000000 14.712700 -0.366200
				CHANNELS 3 Xrotation Yrotation Zrotation
				JOINT Neck
				{
					OFFSET 0.000000 35.415497 -3.314200
					CHANNELS 3 Xrotation Yrotation Zrotation
					JOINT Head
					{
						OFFSET 0.000000 16.899200 1.218300
						CHANNELS 3 Xrotation Yrotation Zrotation
						JOINT HeadTop_End
						{
							OFFSET 0.000000 22.206207 2.192500
							CHANNELS 3 Xrotation Yrotation Zrotation
							End Site
							{
								OFFSET 0.000000 22.314178 0.000000
							}
						}
					}
				}
				JOINT LeftShoulder
				{
					OFFSET 12.896400 26.716293 -4.548400
					CHANNELS 3 Xrotation Yrotation Zrotation
					JOINT LeftArm
					{
						OFFSET 19.027000 -4.857010 -1.718400
						CHANNELS 3 Xrotation Yrotation Zrotation
						JOINT LeftForeArm
						{
							OFFSET 24.179897 0.000000 0.000000
							CHANNELS 3 Xrotation Yrotation Zrotation
							JOINT LeftHand
							{
								OFFSET 27.156403 0.000000 0.000000
								CHANNELS 3 Xrotation Yrotation Zrotation
								JOINT LeftHandIndex1
								{
									OFFSET 16.441200 0.000000 0.000000
									CHANNELS 3 Xrotation Yrotation Zrotation
									JOINT LeftHandIndex2
									{
										OFFSET 4.821899 0.000000 0.000000
										CHANNELS 3 Xrotation Yrotation Zrotation
										JOINT LeftHandIndex3
										{
											OFFSET 6.386497 0.000000 0.000000
											CHANNELS 3 Xrotation Yrotation Zrotation
											JOINT LeftHandIndex4
											{
												OFFSET 5.188988 0.000000 0.000000
												CHANNELS 3 Xrotation Yrotation Zrotation
												End Site
												{
													OFFSET -0.178703 5.185913 0.000177
												}
											}
										}
									}
								}
								JOINT LeftHandThumb1
								{
									OFFSET 6.534897 -5.032593 5.900300
									CHANNELS 3 Xrotation Yrotation Zrotation
									JOINT LeftHandThumb2
									{
										OFFSET 3.818176 -2.204422 2.204423
										CHANNELS 3 Xrotation Yrotation Zrotation
										JOINT LeftHandThumb3
										{
											OFFSET 3.252098 -1.877594 1.877601
											CHANNELS 3 Xrotation Yrotation Zrotation
											JOINT LeftHandThumb4
											{
												OFFSET 5.251778 -3.032120 3.032117
												CHANNELS 3 Xrotation Yrotation Zrotation
												End Site
												{
													OFFSET 0.000023 6.780014 0.000000
												}
											}
										}
									}
								}
							}
						}
					}
				}
				JOINT RightShoulder
				{
					OFFSET -12.896300 26.716293 -4.548400
					CHANNELS 3 Xrotation Yrotation Zrotation
					JOINT RightArm
					{
						OFFSET -19.027000 -4.857010 -1.718400
						CHANNELS 3 Xrotation Yrotation Zrotation
						JOINT RightForeArm
						{
							OFFSET -24.179897 0.000000 0.000000
							CHANNELS 3 Xrotation Yrotation Zrotation
							JOINT RightHand
							{
								OFFSET -27.156403 0.000000 0.000000
								CHANNELS 3 Xrotation Yrotation Zrotation
								JOINT RightHandThumb1
								{
									OFFSET -6.591202 -4.852203 5.988100
									CHANNELS 3 Xrotation Yrotation Zrotation
									JOINT RightHandThumb2
									{
										OFFSET -3.818176 -2.204422 2.204423
										CHANNELS 3 Xrotation Yrotation Zrotation
										JOINT RightHandThumb3
										{
											OFFSET -3.252098 -1.877594 1.877601
											CHANNELS 3 Xrotation Yrotation Zrotation
											JOINT RightHandThumb4
											{
												OFFSET -5.251778 -3.032120 3.032117
												CHANNELS 3 Xrotation Yrotation Zrotation
												End Site
												{
													OFFSET -0.000023 6.780014 0.000000
												}
											}
										}
									}
								}
								JOINT RightHandIndex1
								{
									OFFSET -16.029404 0.000000 0.000000
									CHANNELS 3 Xrotation Yrotation Zrotation
									JOINT RightHandIndex2
									{
										OFFSET -5.213303 0.000000 0.000000
										CHANNELS 3 Xrotation Yrotation Zrotation
										JOINT RightHandIndex3
										{
											OFFSET -6.386528 0.000000 0.000000
											CHANNELS 3 Xrotation Yrotation Zrotation
											JOINT RightHandIndex4
											{
												OFFSET -5.189026 0.000000 0.000000
												CHANNELS 3 Xrotation Yrotation Zrotation
												End Site
												{
													OFFSET 0.236702 5.183624 0.001972
												}
											}
										}
									}
								}
							}
						}
					}
				}
			}
		}
	}
	JOINT LeftUpLeg
	{
		OFFSET 14.073000 -7.904099 -1.463000
		CHANNELS 3 Xrotation Yrotation Zrotation
		JOINT LeftLeg
		{
			OFFSET -0.109806 -34.073280 4.093200
			CHANNELS 3 Xrotation Yrotation Zrotation
			JOINT LeftFoot
			{
				OFFSET 0.109806 -29.899420 -6.319000
				CHANNELS 3 Xrotation Yrotation Zrotation
				JOINT LeftToeBase
				{
					OFFSET 1.551100 -14.988700 20.535801
					CHANNELS 3 Xrotation Yrotation Zrotation
					JOINT LeftToe_End
					{
						OFFSET 0.221200 0.570800 13.248301
						CHANNELS 3 Xrotation Yrotation Zrotation
						End Site
						{
							OFFSET 0.000000 13.262435 0.000000
						}
					}
				}
			}
		}
	}
	JOINT RightUpLeg
	{
		OFFSET -13.839300 -7.904099 -1.463000
		CHANNELS 3 Xrotation Yrotation Zrotation
		JOINT RightLeg
		{
			OFFSET 0.109694 -34.073219 4.093300
			CHANNELS 3 Xrotation Yrotation Zrotation
			JOINT RightFoot
			{
				OFFSET -0.109694 -29.899384 -6.319200
				CHANNELS 3 Xrotation Yrotation Zrotation
				JOINT RightToeBase
				{
					OFFSET -1.551100 -14.988700 20.535801
					CHANNELS 3 Xrotation Yrotation Zrotation
					JOINT RightToe_End
					{
						OFFSET -0.221200 0.570900 13.248299
						CHANNELS 3 Xrotation Yrotation Zrotation
						End Site
						{
							OFFSET 0.000000 13.262440 0.000000
						}
					}
				}
			}
		}
	}
}
MOTION
Frames: 5
Frame Time: 0.033333
0.835309 68.807846 0.473808 20.295105 -16.883551 -0.541142 3.555669 7.742067 0.013871 7.999388 2.329004 -1.942489 5.721565 3.904867 4.534853 -9.355303 1.473840 -6.696541 -19.908159 2.000909 5.244851 0.000000 -0.000000 -0.000000 -2.402581 4.504509 -9.957188 23.237700 3.286800 -63.576753 0.000585 -93.662493 0.000556 -9.633622 -18.435985 -2.439274 3.535476 5.562879 -28.928573 1.501287 3.917118 -41.927041 2.073561 4.471508 -49.739555 0.000001 -0.000001 -0.000001 1.767874 -0.156509 -3.244461 16.986424 30.102290 0.844113 3.930630 5.241999 13.384389 0.000001 0.000002 -0.000003 -12.197741 20.729860 -2.673135 -0.007554 3.217971 59.558532 -0.000038 108.693390 0.000037 -13.177884 -2.478777 -1.417555 -15.930516 -0.823959 -5.827743 6.675284 -31.780122 11.390120 -6.937330 -20.283893 -24.897680 0.000000 -0.000001 0.000001 -3.679125 3.743540 34.931606 0.840524 -2.670801 34.933843 0.275472 -1.579472 19.784760 -0.000000 -0.000002 0.000001 -44.494772 10.191282 24.666948 106.336381 3.051170 0.587689 -12.518058 -12.645829 6.231855 -25.118500 2.400998 -7.474668 0.000001 -0.000000 -0.000000 -54.096854 1.264222 14.073709 73.318700 -6.982419 -5.042332 -35.886794 -10.153054 1.357975 -4.480825 -0.000002 -0.000005 -0.000000 0.000001 -0.000000 
-1.226931 67.071228 13.768329 20.309352 -31.871681 4.027635 2.771859 7.462965 0.230121 7.118385 5.684031 -3.200102 4.836413 7.384354 3.485687 -7.349324 2.706504 -5.902754 -20.822694 4.928709 2.750575 -0.000000 -0.000000 0.000000 -1.407263 5.638299 -9.100903 22.086950 29.679371 -53.485258 0.000393 -84.549539 0.000384 -21.285699 -17.277950 -8.707894 3.561713 4.995032 -26.903782 1.296951 3.677428 -38.842531 1.715661 4.142846 -44.976710 -0.000003 0.000001 0.000000 0.191381 0.238076 -2.451476 15.180811 28.822442 2.354637 3.190638 5.093139 13.639986 -0.000000 0.000002 0.000003 -11.958129 21.191446 -0.291161 -30.950275 37.018013 36.776512 0.000051 70.582417 -0.000072 -18.725595 -5.772674 -4.724132 -16.141052 -0.083907 -5.330309 6.511568 -31.486954 10.789964 -7.239265 -18.978789 -24.682096 -0.000002 -0.000003 0.000001 -3.985049 4.250279 34.215474 0.744583 -2.527974 32.817939 0.255527 -1.522978 19.048791 -0.000002 -0.000004 0.000001 -57.361759 13.037692 22.143535 109.601689 2.014347 -0.727073 -16.212327 -3.090674 0.661302 -41.914088 1.833971 -2.755057 0.000000 0.000000 -0.000000 -43.309130 19.610233 18.504430 74.626961 -10.384621 -4.593076 -50.487857 -4.317407 2.767985 -7.703814 -0.000004 -0.000005 0.000000 0.000001 -0.000000 
-5.300764 66.162567 27.127165 19.527362 -40.945942 9.102019 2.258868 6.863364 -1.352750 5.828209 8.585978 -4.627912 3.573394 10.418744 2.194491 -5.722870 2.650570 -3.435501 -19.441830 2.432011 0.557171 -0.000000 -0.000000 0.000000 -1.270782 6.210990 -1.563435 27.930286 28.493481 -50.531911 -0.000003 -57.861189 -0.000011 -32.955366 -27.538778 -8.029564 3.632599 4.385761 -24.704031 1.090058 3.405056 -35.493857 1.359504 3.753626 -39.807756 0.000001 -0.000003 -0.000003 -1.538448 0.615682 -1.588069 13.264522 27.372688 3.894221 2.386253 4.924922 13.911612 -0.000000 -0.000000 0.000001 -9.305581 20.560343 -3.911102 -87.530199 57.878019 75.029792 -0.000020 32.023130 0.000010 -16.710367 7.762209 -0.302027 -16.351820 0.742059 -4.782368 6.343137 -31.179913 10.124590 -7.575473 -17.635284 -24.471646 -0.000001 0.000001 0.000000 -4.331852 4.852868 33.464625 0.651082 -2.376896 30.633279 0.235402 -1.463418 18.276603 0.000000 0.000001 -0.000001 -79.215933 12.030569 25.012639 99.007635 1.462092 -1.282661 -14.197021 -15.229471 5.708817 -17.105201 -0.775478 3.911189 -0.000000 0.000000 -0.000000 -26.989723 36.085860 14.620208 73.658850 -11.830768 -4.878004 -56.998014 -8.590124 4.903751 -19.009193 0.000008 0.000005 -0.000000 0.000000 0.000001 
-9.608938 65.856903 42.006851 17.424128 -39.122880 9.284797 1.947791 6.815003 -4.191615 4.685012 10.391620 -5.674344 2.458414 12.361107 1.239487 -4.351864 1.402887 -0.566552 -16.458176 -6.120808 -0.461032 -0.000000 0.000001 0.000000 -1.646432 6.580028 9.390197 28.507997 19.335690 -55.703820 0.000004 -35.724990 -0.000003 -37.342137 -37.644697 -9.743119 3.756948 3.743493 -22.344139 0.886342 3.100083 -31.904596 1.018421 3.302489 -34.269463 -0.000001 0.000001 0.000001 -3.411645 0.961070 -0.662528 11.259307 25.753725 5.428570 1.522948 4.737178 14.195866 0.000000 -0.000000 -0.000002 -6.159632 17.947748 -9.442991 -81.423935 51.120756 70.505591 -0.000012 63.176169 0.000007 -28.966798 -4.358596 -15.453423 -16.564414 1.640954 -4.192155 6.171687 -30.860844 9.405034 -7.941687 -16.259807 -24.262891 0.000001 0.000001 0.000001 -4.706653 5.540055 32.686663 0.561146 -2.218175 28.390675 0.215359 -1.401216 17.473806 0.000001 -0.000000 -0.000003 -85.565202 14.352201 26.013026 78.450358 0.326698 -4.100210 -13.954910 -16.218190 8.020426 -4.923382 0.000001 0.000002 0.000000 -0.000003 -0.000000 -0.672046 41.221872 3.532019 62.728287 -13.505904 -4.942489 -53.490148 -14.325466 6.807183 -27.016410 0.000003 0.000001 0.000000 0.000001 0.000000 
-14.086666 66.029930 56.679352 13.347023 -31.482910 4.949799 1.915430 8.085121 -7.565631 4.055406 11.320446 -6.153194 1.802465 13.413629 0.887297 -3.232729 -0.306421 1.356013 -12.844105 -18.084801 0.268327 -0.000000 -0.000002 -0.000000 -1.580196 6.917651 16.715976 26.185072 16.257064 -58.502052 0.000002 -46.516269 0.000003 -43.411586 -16.231140 -2.600068 3.939161 3.086228 -19.871163 0.694053 2.767834 -28.149300 0.709964 2.797339 -28.477014 -0.000001 -0.000000 0.000001 -5.390319 1.255972 0.303000 9.212078 23.993182 6.906250 0.618510 4.532636 14.485440 0.000001 0.000000 0.000001 -4.538029 13.477578 -9.877721 -50.566465 36.527490 45.109752 0.000003 102.847144 -0.000011 -35.237636 -11.969093 -32.617473 -16.780665 2.581281 -3.578096 6.000084 -30.534262 8.656484 -8.327245 -14.867502 -24.050452 -0.000001 0.000000 0.000001 -5.086995 6.280812 31.896509 0.476361 -2.053652 26.115647 0.195762 -1.337393 16.653782 -0.000001 -0.000001 0.000002 -86.813098 23.155094 20.103607 59.576038 1.917740 -6.365952 -13.724327 -13.792931 12.528078 -5.642321 -0.000000 0.000001 -0.000000 0.000000 0.000000 11.833642 31.527047 4.690208 57.276542 -12.884085 -4.244726 -23.294113 4.996912 5.120251 -55.834484 5.734272 -7.562355 0.000000 0.000000 0.000000 
